<?xml version="1.0" encoding="utf-8"?>
<!-- Generator: Adobe Illustrator 16.0.0, SVG Export Plug-In . SVG Version: 6.00 Build 0)  -->
<!DOCTYPE svg PUBLIC "-//W3C//DTD SVG 1.1//EN" "http://www.w3.org/Graphics/SVG/1.1/DTD/svg11.dtd">
<svg version="1.1" id="Capa_1" xmlns="http://www.w3.org/2000/svg" xmlns:xlink="http://www.w3.org/1999/xlink" x="0px" y="0px"
	 width="512px" height="512px" viewBox="0 0 512 512" enable-background="new 0 0 512 512" xml:space="preserve">
<g>
	<g>
		<g>
			<g>
				<g>
					<path fill="#D3D3D3" d="M419.775,247.702v169.131c0,5.141-2.816,9.869-7.34,12.32l-149.758,81.142
						c-4.168,2.256-9.194,2.256-13.35,0l-149.77-81.142c-4.511-2.45-7.328-7.18-7.328-12.32V247.702H419.775z"/>
					<g>
						<path fill="#B9B9B9" d="M419.775,278.134v57.545l-86.535,46.886c-3.436,1.854-7.477,2.197-11.176,0.949l-66.063-22.372
							v-83.008H419.775z"/>
						<path fill="#B9B9B9" d="M390.165,247.703v193.516l22.272-12.067c4.521-2.45,7.338-7.18,7.338-12.321V247.703H390.165z"/>
						<path fill="#B9B9B9" d="M256.003,247.702V512c-2.301,0-4.591-0.561-6.687-1.694L99.558,429.152
							c-4.511-2.462-7.328-7.18-7.328-12.32v-169.13H256.003z"/>
					</g>
					<path fill="#A2A2A2" d="M256.003,278.134v83.008l-66.075,22.372c-3.687,1.248-7.74,0.904-11.163-0.949L92.23,335.679v-57.545
						H256.003z"/>
					<path fill="#A2A2A2" d="M226.954,247.702V498.18l22.367,12.12c2.088,1.135,4.386,1.696,6.684,1.696V247.702H226.954z"/>
					<path fill="#696969" d="M256,158.966L92.225,247.703L256,336.439l163.775-88.736L256,158.966z"/>
					<path fill="#4F4F4F" d="M386.08,265.964l-130.077,70.471l-130.077-70.471l85.206-46.169c27.991-15.167,61.75-15.167,89.741,0
						L386.08,265.964z"/>
				</g>
				<g>
					<path fill="#D3D3D3" d="M471.874,187.931l-52.098,59.772L256,158.966l54.161-62.135c2.155-2.472,5.735-3.119,8.62-1.557
						l151.148,81.892C473.875,179.304,474.822,184.548,471.874,187.931L471.874,187.931z"/>
					<path fill="#B9B9B9" d="M328.352,118.957c0,12.217-9.906,22.132-22.121,22.132c-9.926,0-18.32-6.53-21.121-15.518
						l24.787-28.432C320.373,98.888,328.352,107.99,328.352,118.957L328.352,118.957z"/>
				</g>
				<g>
					<path fill="#E8E8E8" d="M40.126,187.931l52.098,59.772L256,158.966l-54.161-62.135c-2.155-2.472-5.736-3.119-8.62-1.557
						L42.071,177.167C38.125,179.304,37.178,184.548,40.126,187.931L40.126,187.931z"/>
					<path fill="#D3D3D3" d="M163.214,131.059c0,15.383-12.477,27.849-27.86,27.849c-11.967,0-22.173-7.551-26.11-18.143
						l48.502-26.277C161.183,119.113,163.214,124.852,163.214,131.059L163.214,131.059z"/>
				</g>
				<g>
					<path fill="#D3D3D3" d="M35.57,266.887l56.655-19.185L256,336.439l-66.068,22.369c-3.694,1.251-7.741,0.906-11.17-0.951
						L34.479,279.686C29.102,276.771,29.777,268.85,35.57,266.887z"/>
				</g>
				<g>
					<path fill="#E8E8E8" d="M476.43,266.887l-56.654-19.185L256,336.439l66.068,22.369c3.693,1.251,7.74,0.906,11.17-0.951
						l144.281-78.172C482.898,276.771,482.223,268.85,476.43,266.887L476.43,266.887z"/>
				</g>
			</g>
			<path fill="#878787" d="M299.746,453.899c-2.744,0-5.4-1.466-6.801-4.048c-2.032-3.752-0.639-8.44,3.113-10.474l17.724-9.603
				c3.755-2.034,8.442-0.64,10.475,3.112s0.64,8.441-3.112,10.475l-17.725,9.603C302.25,453.599,300.989,453.899,299.746,453.899z"
				/>
			<g>
				<g>
					<g>
						<g>
							<path fill="#CECECE" d="M107.501,103.203c0-15.384,12.471-27.855,27.855-27.855c15.384,0,27.855,12.471,27.855,27.855
								c0,15.384-12.471,27.855-27.855,27.855C119.972,131.058,107.501,118.587,107.501,103.203"/>
							<path fill="#AEAEAE" d="M121.228,127.207c10.934-2.52,19.081-12.309,19.081-24.007c0-11.686-8.134-21.487-19.068-24.007
								c4.137-2.444,8.961-3.844,14.117-3.844c15.377,0,27.851,12.475,27.851,27.851c0,15.389-12.475,27.864-27.851,27.864
								C130.202,131.064,125.365,129.664,121.228,127.207"/>
						</g>
						<g>
							<path fill="#CECECE" d="M199.633,22.738c-3.018-3.017-7.909-3.017-10.928,0l-6.374,6.374l-6.374-6.374
								c-3.018-3.017-7.909-3.017-10.928,0c-3.017,3.017-3.017,7.909,0,10.927l6.374,6.374l-6.374,6.374
								c-3.017,3.017-3.017,7.909,0,10.927c1.509,1.509,3.487,2.263,5.464,2.263s3.955-0.755,5.464-2.263l6.374-6.374l6.374,6.374
								c1.509,1.509,3.487,2.263,5.464,2.263s3.955-0.755,5.464-2.263c3.017-3.017,3.017-7.909,0-10.927l-6.374-6.374l6.374-6.374
								C202.65,30.647,202.65,25.755,199.633,22.738L199.633,22.738z"/>
							<path fill="#CECECE" d="M422,90.652l6.374-6.374c3.017-3.017,3.017-7.909,0-10.927c-3.018-3.017-7.909-3.017-10.928,0
								l-6.374,6.374l-6.374-6.374c-3.019-3.017-7.909-3.017-10.929,0c-3.017,3.017-3.017,7.909,0,10.927l6.374,6.374l-6.374,6.374
								c-3.017,3.017-3.017,7.909,0,10.927c1.51,1.509,3.487,2.263,5.465,2.263c1.977,0,3.955-0.755,5.464-2.263l6.374-6.374
								l6.374,6.374c1.509,1.509,3.486,2.263,5.464,2.263c1.977,0,3.955-0.755,5.464-2.263c3.017-3.017,3.017-7.909,0-10.927
								L422,90.652z"/>
						</g>
					</g>
				</g>
				<g>
					<circle fill="#A3A3A3" cx="306.227" cy="96.834" r="22.125"/>
					<path fill="#878787" d="M328.352,96.831c0,12.224-9.91,22.133-22.123,22.133c-4.096,0-7.938-1.112-11.224-3.064
						c8.685-2.002,15.156-9.777,15.156-19.069c0-9.282-6.461-17.067-15.146-19.069c3.285-1.941,7.117-3.054,11.213-3.054
						C318.441,74.708,328.352,84.617,328.352,96.831L328.352,96.831z"/>
				</g>
			</g>
		</g>
		<g>
			<circle fill="#D3D3D3" cx="351.116" cy="25.935" r="25.935"/>
			<path fill="#B9B9B9" d="M377.05,25.932c0,14.329-11.614,25.944-25.932,25.944c-4.8,0-9.304-1.304-13.156-3.591
				c10.181-2.347,17.767-11.461,17.767-22.353c0-10.88-7.574-20.006-17.754-22.353C341.825,1.304,346.316,0,351.117,0
				C365.436,0,377.05,11.615,377.05,25.932z"/>
		</g>
	</g>
	<g>
		<path fill="#BCBCBC" d="M326.742,273.152c0,9.982-2.071,19.492-5.811,28.104L256,336.438l-64.932-35.182
			c-3.739-8.611-5.81-18.121-5.81-28.104c0-39.063,31.678-70.742,70.742-70.742C295.064,202.41,326.742,234.088,326.742,273.152z"/>
		<path fill="#AEAEAE" d="M326.732,273.152c0,9.982-2.071,19.492-5.801,28.104l-45.709,24.767
			c14.567-12.96,23.746-31.843,23.746-52.87c0-34.314-24.426-62.912-56.845-69.371c4.492-0.896,9.127-1.36,13.877-1.36
			C295.064,202.42,326.732,234.078,326.732,273.152L326.732,273.152z"/>
		<g>
			<path fill="#949494" d="M270.057,301.936c-1.774,0-3.557-0.608-5.013-1.851c-2.502-2.135-6.097-3.367-9.864-3.378
				c-0.017,0-0.034,0-0.051,0c-3.748,0-7.33,1.208-9.833,3.318c-3.263,2.75-8.138,2.336-10.887-0.926
				c-2.752-3.263-2.336-8.137,0.926-10.888c5.324-4.489,12.35-6.958,19.794-6.958h0.098c7.481,0.023,14.531,2.536,19.851,7.077
				c3.245,2.771,3.631,7.647,0.859,10.894C274.408,301.016,272.239,301.936,270.057,301.936L270.057,301.936z"/>
			<g>
				<g>
					<path fill="#949494" d="M222.387,273.826c-0.018,0-0.036,0-0.054,0c-4.268-0.03-7.738-3.514-7.709-7.78
						c0.03-4.267,3.472-7.735,7.743-7.673l0.072,0.001c4.268,0.03,7.702,3.513,7.673,7.78
						C230.082,270.402,226.629,273.826,222.387,273.826z"/>
				</g>
			</g>
		</g>
	</g>
	<path fill="#949494" d="M289.678,273.826c-0.018,0-0.035,0-0.054,0c-4.269-0.03-7.737-3.514-7.709-7.78
		c0.03-4.248,3.448-7.673,7.688-7.673h0.055l0.072,0.001c4.268,0.03,7.701,3.513,7.672,7.78
		C297.373,270.402,293.92,273.826,289.678,273.826L289.678,273.826z"/>
</g>
</svg>
